<svg width="259" height="225" viewBox="0 0 259 225" fill="none" xmlns="http://www.w3.org/2000/svg">
<path d="M131.337 77.622L178.5 0L189.5 32L130.5 129.5L70.5 32L80.5 0L129.638 77.6375C130.035 78.2645 130.952 78.2561 131.337 77.622Z" fill="#72B734"/>
<path d="M0 0H80.5L70.5 32H49.5L0 0Z" fill="#82C239"/>
<path d="M259 0H178.5L189.5 32H210.5L259 0Z" fill="#65A34A"/>
<path d="M49.5 32V86L0 0L49.5 32Z" fill="#92CC42"/>
<path d="M210.5 32V86L259 0L210.5 32Z" fill="#478958"/>
<path d="M195.5 117.5V60L130.5 175.5V224.5L195.5 117.5Z" fill="#0072C3"/>
<path d="M64.5 118V60L130.5 175.5V224.5L64.5 118Z" fill="#205B97"/>
</svg>
